<svg width="56" height="56" viewBox="0 0 56 56" fill="none" xmlns="http://www.w3.org/2000/svg">
<path d="M24 14.4832L24 16.0832C24 16.5251 24.3582 16.8832 24.8 16.8832L31.2 16.8832C31.6418 16.8832 32 16.5251 32 16.0832L32 14.4832C32 14.0414 31.6418 13.6832 31.2 13.6832L24.8 13.6832C24.3582 13.6832 24 14.0414 24 14.4832Z" fill="#001E30"/>
<path d="M24 37.6832L24 32.8832L32 32.8832L32 37.6832L24 37.6832ZM24 32.0832L24 27.2832L32 27.2832L32 32.0832L24 32.0832Z" fill="#001E30"/>
<path fill-rule="evenodd" clip-rule="evenodd" d="M19.2 21.6832L19.2 37.6832C19.2 38.9563 19.7057 40.1772 20.6059 41.0773C21.5061 41.9775 22.727 42.4832 24 42.4832L32 42.4832C33.2731 42.4832 34.494 41.9775 35.3941 41.0773C36.2943 40.1772 36.8 38.9563 36.8 37.6832L36.8 21.6832C36.8 20.4102 36.2943 19.1893 35.3941 18.2891C34.4939 17.3889 33.2731 16.8832 32 16.8832L24 16.8832C22.727 16.8832 21.5061 17.3889 20.6059 18.2891C19.7057 19.1893 19.2 20.4102 19.2 21.6832ZM24 39.2832C23.5757 39.2832 23.1687 39.1146 22.8686 38.8146C22.5686 38.5145 22.4 38.1076 22.4 37.6832L22.4 21.6832C22.4 21.2589 22.5686 20.8519 22.8686 20.5518C23.1687 20.2518 23.5757 20.0832 24 20.0832L32 20.0832C32.4244 20.0832 32.8313 20.2518 33.1314 20.5518C33.4314 20.8519 33.6 21.2589 33.6 21.6832L33.6 37.6832C33.6 38.1076 33.4314 38.5145 33.1314 38.8146C32.8313 39.1146 32.4244 39.2832 32 39.2832L24 39.2832Z" fill="#001E30"/>
</svg>
