<svg width="16" height="16" viewBox="0 0 16 16" fill="none" xmlns="http://www.w3.org/2000/svg">
<g clip-path="url(#clip0_303_81)">
<path d="M13.3333 2.00008V2.00008C12.9652 2.00008 12.6667 1.7016 12.6667 1.33341V1.33341C12.6667 0.965225 12.3682 0.666748 12 0.666748V0.666748C11.6318 0.666748 11.3333 0.965225 11.3333 1.33341V1.33341C11.3333 1.7016 11.0349 2.00008 10.6667 2.00008H5.33334C4.96515 2.00008 4.66668 1.7016 4.66668 1.33341V1.33341C4.66668 0.965225 4.3682 0.666748 4.00001 0.666748V0.666748C3.63182 0.666748 3.33334 0.965225 3.33334 1.33341V1.33341C3.33334 1.7016 3.03487 2.00008 2.66668 2.00008V2.00008C1.93334 2.00008 1.33334 2.60008 1.33334 3.33341V14.0001C1.33334 14.7334 1.93334 15.3334 2.66668 15.3334H13.3333C14.0667 15.3334 14.6667 14.7334 14.6667 14.0001V3.33341C14.6667 2.60008 14.0667 2.00008 13.3333 2.00008ZM13.3333 13.0001C13.3333 13.5524 12.8856 14.0001 12.3333 14.0001H3.66668C3.11439 14.0001 2.66668 13.5524 2.66668 13.0001V6.33342C2.66668 5.78113 3.11439 5.33341 3.66668 5.33341H12.3333C12.8856 5.33341 13.3333 5.78113 13.3333 6.33341V13.0001Z" fill="#41474D"/>
</g>
<defs>
<clipPath id="clip0_303_81">
<rect width="16" height="16" fill="white"/>
</clipPath>
</defs>
</svg>
