<svg width="57" height="56" viewBox="0 0 57 56" fill="none" xmlns="http://www.w3.org/2000/svg">
<path d="M39.3333 16.0832H39C38.4477 16.0832 38 15.6355 38 15.0832V14.4166C38 13.8643 37.5523 13.4166 37 13.4166H36.3333C35.781 13.4166 35.3333 13.8643 35.3333 14.4166V15.0832C35.3333 15.6355 34.8856 16.0832 34.3333 16.0832H23C22.4477 16.0832 22 15.6355 22 15.0832V14.4166C22 13.8643 21.5523 13.4166 21 13.4166H20.3333C19.781 13.4166 19.3333 13.8643 19.3333 14.4166V15.0832C19.3333 15.6355 18.8856 16.0832 18.3333 16.0832H18C16.5333 16.0832 15.3333 17.2832 15.3333 18.7499V40.0832C15.3333 41.5499 16.5333 42.7499 18 42.7499H39.3333C40.8 42.7499 42 41.5499 42 40.0832V18.7499C42 17.2832 40.8 16.0832 39.3333 16.0832ZM39.3333 39.0832C39.3333 39.6355 38.8856 40.0832 38.3333 40.0832H19C18.4477 40.0832 18 39.6355 18 39.0832V23.7499C18 23.1976 18.4477 22.7499 19 22.7499H38.3333C38.8856 22.7499 39.3333 23.1976 39.3333 23.7499V39.0832Z" fill="#001E30"/>
<path d="M32 33.7499C32 33.1976 32.4477 32.7499 33 32.7499H36.3333C36.8856 32.7499 37.3333 33.1976 37.3333 33.7499V37.0832C37.3333 37.6355 36.8856 38.0832 36.3333 38.0832H33C32.4477 38.0832 32 37.6355 32 37.0832V33.7499Z" fill="#001E30"/>
</svg>
