<svg width="56" height="56" viewBox="0 0 56 56" fill="none" xmlns="http://www.w3.org/2000/svg">
<g clip-path="url(#clip0_317_162)">
<path d="M35.2929 22.1237C35.6834 21.7331 35.6834 21.1 35.2929 20.7095L34.8271 20.2437C34.4366 19.8531 33.8034 19.8531 33.4129 20.2437L26.3738 27.2828C25.9833 27.6733 25.9833 28.3065 26.3738 28.697L26.8396 29.1628C27.2301 29.5533 27.8633 29.5533 28.2538 29.1628L35.2929 22.1237ZM42.3605 20.2387C41.9695 19.8505 41.3383 19.8516 40.9487 20.2412L28.253 32.937C27.8628 33.3272 27.2302 33.3275 26.8396 32.9378L22.6805 28.7886C22.2898 28.3989 21.6573 28.3993 21.2671 28.7895L20.8005 29.2561C20.4099 29.6466 20.4099 30.2798 20.8005 30.6703L26.8396 36.7095C27.2301 37.1 27.8633 37.1 28.2538 36.7095L42.8371 22.1262C43.2286 21.7347 43.2275 21.0996 42.8346 20.7095L42.3605 20.2387ZM13.2588 29.2561C12.8659 29.6462 12.8648 30.2813 13.2563 30.6728L19.2929 36.7095C19.6834 37.1 20.3166 37.1 20.7071 36.7095L21.1736 36.243C21.5638 35.8528 21.5641 35.2201 21.1742 34.8295L15.1446 28.7891C14.7552 28.399 14.1235 28.3976 13.7323 28.786L13.2588 29.2561Z" fill="#001E30"/>
</g>
<defs>
<clipPath id="clip0_317_162">
<rect width="32" height="32" fill="white" transform="translate(12 12.0833)"/>
</clipPath>
</defs>
</svg>
