<svg width="16" height="16" viewBox="0 0 16 16" fill="none" xmlns="http://www.w3.org/2000/svg">
<g clip-path="url(#clip0_303_93)">
<path d="M13.3333 2.66675H2.66666C1.93333 2.66675 1.33999 3.26675 1.33999 4.00008L1.33333 12.0001C1.33333 12.7334 1.93333 13.3334 2.66666 13.3334H13.3333C14.0667 13.3334 14.6667 12.7334 14.6667 12.0001V4.00008C14.6667 3.26675 14.0667 2.66675 13.3333 2.66675ZM13.3333 5.02008C13.3333 5.215 13.2329 5.39617 13.0676 5.49948L8.52999 8.3355C8.20572 8.53817 7.79427 8.53817 7.47 8.3355L2.93237 5.49948C2.76708 5.39617 2.66666 5.215 2.66666 5.02008C2.66666 4.57605 3.15508 4.30534 3.53162 4.54068L7.47 7.00217C7.79427 7.20483 8.20572 7.20483 8.52999 7.00217L12.4684 4.54068C12.8449 4.30534 13.3333 4.57605 13.3333 5.02008Z" fill="#41474D"/>
</g>
<defs>
<clipPath id="clip0_303_93">
<rect width="16" height="16" fill="white"/>
</clipPath>
</defs>
</svg>
