<svg
    xmlns="http://www.w3.org/2000/svg"
    width="475"
    height="92"
    viewBox="0 0 475 92"
		fill="none"
		className='ml-5'
  >
    <path
      d="M35.9107 52.6303H13.2398L13.1189 38.6397H31.4974C34.8023 38.6397 37.4422 38.2747 39.4171 37.5448C41.392 36.7743 42.8228 35.6591 43.7094 34.1992C44.6364 32.7393 45.0999 30.9144 45.0999 28.7246C45.0999 26.2103 44.6364 24.1827 43.7094 22.6417C42.7824 21.1007 41.3114 19.9855 39.2962 19.2961C37.3213 18.5662 34.762 18.2012 31.6183 18.2012H21.2199V90.2834H0V1.71658H31.6183C37.0593 1.71658 41.9159 2.22348 46.1881 3.2373C50.4603 4.21056 54.0877 5.71101 57.0701 7.73864C60.0929 9.76626 62.3902 12.3211 63.9621 15.4031C65.5339 18.4445 66.3198 22.0334 66.3198 26.1698C66.3198 29.779 65.5541 33.1651 64.0225 36.3282C62.491 39.4913 59.9317 42.0664 56.3447 44.0535C52.7979 46 47.9413 47.0138 41.7749 47.0949L35.9107 52.6303ZM35.0643 90.2834H8.10106L15.3557 73.8596H35.0643C37.9661 73.8596 40.2836 73.4135 42.0167 72.5214C43.79 71.5887 45.0596 70.3721 45.8254 68.8717C46.6315 67.3307 47.0345 65.6274 47.0345 63.762C47.0345 61.4911 46.6516 59.5243 45.8858 57.8616C45.1604 56.199 43.9916 54.9216 42.3794 54.0294C40.7673 53.0967 38.611 52.6303 35.9107 52.6303H18.0762L18.1971 38.6397H39.538L44.4954 44.236C50.3797 43.9926 55.0348 44.824 58.4606 46.7299C61.9267 48.6359 64.4054 51.1502 65.8967 54.2727C67.3879 57.3953 68.1335 60.6598 68.1335 64.0662C68.1335 69.8652 66.8841 74.7112 64.3853 78.6043C61.9267 82.4973 58.2389 85.4171 53.3219 87.3636C48.4048 89.3102 42.319 90.2834 35.0643 90.2834Z"
      fill="#E7F2FF"
    />
    <path
      d="M154.404 44.236V47.8249C154.404 54.5971 153.457 60.68 151.562 66.0735C149.708 71.4265 147.068 76.0089 143.643 79.8209C140.217 83.5922 136.166 86.4918 131.491 88.5194C126.816 90.5065 121.657 91.5 116.014 91.5C110.332 91.5 105.132 90.5065 100.417 88.5194C95.7416 86.4918 91.6709 83.5922 88.2048 79.8209C84.779 76.0089 82.1189 71.4265 80.2246 66.0735C78.3707 60.68 77.4437 54.5971 77.4437 47.8249V44.236C77.4437 37.4637 78.3707 31.3808 80.2246 25.9873C82.1189 20.5938 84.7588 16.0114 88.1443 12.24C91.5701 8.42803 95.6207 5.52852 100.296 3.54144C105.011 1.51381 110.211 0.5 115.893 0.5C121.536 0.5 126.695 1.51381 131.37 3.54144C136.086 5.52852 140.156 8.42803 143.582 12.24C147.008 16.0114 149.668 20.5938 151.562 25.9873C153.457 31.3808 154.404 37.4637 154.404 44.236ZM132.882 47.8249V44.1143C132.882 39.7346 132.499 35.8821 131.733 32.5568C131.007 29.191 129.919 26.3725 128.468 24.1016C127.017 21.8307 125.224 20.1275 123.088 18.992C120.992 17.816 118.594 17.2279 115.893 17.2279C113.072 17.2279 110.614 17.816 108.518 18.992C106.422 20.1275 104.669 21.8307 103.258 24.1016C101.848 26.3725 100.78 29.191 100.054 32.5568C99.3689 35.8821 99.0263 39.7346 99.0263 44.1143V47.8249C99.0263 52.164 99.3689 56.0165 100.054 59.3823C100.78 62.7077 101.848 65.5261 103.258 67.8376C104.709 70.1491 106.483 71.8928 108.578 73.0688C110.714 74.2449 113.193 74.8329 116.014 74.8329C118.715 74.8329 121.113 74.2449 123.209 73.0688C125.304 71.8928 127.058 70.1491 128.468 67.8376C129.919 65.5261 131.007 62.7077 131.733 59.3823C132.499 56.0165 132.882 52.164 132.882 47.8249Z"
      fill="#E7F2FF"
    />
    <path
      d="M200.531 60.234H178.646V43.7493H200.531C203.514 43.7493 205.932 43.2424 207.786 42.2286C209.64 41.2148 210.99 39.8157 211.837 38.0314C212.723 36.2066 213.167 34.1586 213.167 31.8877C213.167 29.4545 212.723 27.2039 211.837 25.1357C210.99 23.0675 209.64 21.4049 207.786 20.1477C205.932 18.85 203.514 18.2012 200.531 18.2012H186.627V90.2834H165.407V1.71658H200.531C207.585 1.71658 213.65 3.01426 218.729 5.60963C223.847 8.20499 227.777 11.7736 230.517 16.3155C233.258 20.8168 234.628 25.967 234.628 31.766C234.628 37.484 233.258 42.4719 230.517 46.7299C227.777 50.988 223.847 54.3133 218.729 56.7059C213.65 59.0579 207.585 60.234 200.531 60.234Z"
      fill="#E7F2FF"
    />
    <path
      d="M320.536 44.236V47.8249C320.536 54.5971 319.589 60.68 317.694 66.0735C315.84 71.4265 313.201 76.0089 309.775 79.8209C306.349 83.5922 302.298 86.4918 297.623 88.5194C292.948 90.5065 287.789 91.5 282.146 91.5C276.464 91.5 271.264 90.5065 266.549 88.5194C261.874 86.4918 257.803 83.5922 254.337 79.8209C250.911 76.0089 248.251 71.4265 246.357 66.0735C244.503 60.68 243.576 54.5971 243.576 47.8249V44.236C243.576 37.4637 244.503 31.3808 246.357 25.9873C248.251 20.5938 250.891 16.0114 254.276 12.24C257.702 8.42803 261.753 5.52852 266.428 3.54144C271.144 1.51381 276.343 0.5 282.026 0.5C287.668 0.5 292.827 1.51381 297.502 3.54144C302.218 5.52852 306.288 8.42803 309.714 12.24C313.14 16.0114 315.8 20.5938 317.694 25.9873C319.589 31.3808 320.536 37.4637 320.536 44.236ZM299.014 47.8249V44.1143C299.014 39.7346 298.631 35.8821 297.865 32.5568C297.139 29.191 296.051 26.3725 294.6 24.1016C293.149 21.8307 291.356 20.1275 289.22 18.992C287.124 17.816 284.726 17.2279 282.026 17.2279C279.204 17.2279 276.746 17.816 274.65 18.992C272.554 20.1275 270.801 21.8307 269.39 24.1016C267.98 26.3725 266.912 29.191 266.186 32.5568C265.501 35.8821 265.158 39.7346 265.158 44.1143V47.8249C265.158 52.164 265.501 56.0165 266.186 59.3823C266.912 62.7077 267.98 65.5261 269.39 67.8376C270.841 70.1491 272.615 71.8928 274.71 73.0688C276.847 74.2449 279.325 74.8329 282.146 74.8329C284.847 74.8329 287.245 74.2449 289.341 73.0688C291.436 71.8928 293.19 70.1491 294.6 67.8376C296.051 65.5261 297.139 62.7077 297.865 59.3823C298.631 56.0165 299.014 52.164 299.014 47.8249Z"
      fill="#E7F2FF"
    />
    <path
      d="M368.961 1.71658V90.2834H347.741V1.71658H368.961ZM395.44 1.71658V18.2012H321.866V1.71658H395.44Z"
      fill="#E7F2FF"
    />
    <path
      d="M434.374 20.3302L412.912 90.2834H390.12L422.464 1.71658H436.913L434.374 20.3302ZM452.148 90.2834L430.626 20.3302L427.845 1.71658H442.475L475 90.2834H452.148ZM451.301 57.2533V73.738H406.141V57.2533H451.301Z"
      fill="#E7F2FF"
    />
    <path
      d="M35.9107 52.6303H13.2398L13.1189 38.6397H31.4974C34.8023 38.6397 37.4422 38.2747 39.4171 37.5448C41.392 36.7743 42.8228 35.6591 43.7094 34.1992C44.6364 32.7393 45.0999 30.9144 45.0999 28.7246C45.0999 26.2103 44.6364 24.1827 43.7094 22.6417C42.7824 21.1007 41.3114 19.9855 39.2962 19.2961C37.3213 18.5662 34.762 18.2012 31.6183 18.2012H21.2199V90.2834H0V1.71658H31.6183C37.0593 1.71658 41.9159 2.22348 46.1881 3.2373C50.4603 4.21056 54.0877 5.71101 57.0701 7.73864C60.0929 9.76626 62.3902 12.3211 63.9621 15.4031C65.5339 18.4445 66.3198 22.0334 66.3198 26.1698C66.3198 29.779 65.5541 33.1651 64.0225 36.3282C62.491 39.4913 59.9317 42.0664 56.3447 44.0535C52.7979 46 47.9413 47.0138 41.7749 47.0949L35.9107 52.6303ZM35.0643 90.2834H8.10106L15.3557 73.8596H35.0643C37.9661 73.8596 40.2836 73.4135 42.0167 72.5214C43.79 71.5887 45.0596 70.3721 45.8254 68.8717C46.6315 67.3307 47.0345 65.6274 47.0345 63.762C47.0345 61.4911 46.6516 59.5243 45.8858 57.8616C45.1604 56.199 43.9916 54.9216 42.3794 54.0294C40.7673 53.0967 38.611 52.6303 35.9107 52.6303H18.0762L18.1971 38.6397H39.538L44.4954 44.236C50.3797 43.9926 55.0348 44.824 58.4606 46.7299C61.9267 48.6359 64.4054 51.1502 65.8967 54.2727C67.3879 57.3953 68.1335 60.6598 68.1335 64.0662C68.1335 69.8652 66.8841 74.7112 64.3853 78.6043C61.9267 82.4973 58.2389 85.4171 53.3219 87.3636C48.4048 89.3102 42.319 90.2834 35.0643 90.2834Z"
      fill="#E7F2FF"
    />
    <path
      d="M154.404 44.236V47.8249C154.404 54.5971 153.457 60.68 151.562 66.0735C149.708 71.4265 147.068 76.0089 143.643 79.8209C140.217 83.5922 136.166 86.4918 131.491 88.5194C126.816 90.5065 121.657 91.5 116.014 91.5C110.332 91.5 105.132 90.5065 100.417 88.5194C95.7416 86.4918 91.6709 83.5922 88.2048 79.8209C84.779 76.0089 82.1189 71.4265 80.2246 66.0735C78.3707 60.68 77.4437 54.5971 77.4437 47.8249V44.236C77.4437 37.4637 78.3707 31.3808 80.2246 25.9873C82.1189 20.5938 84.7588 16.0114 88.1443 12.24C91.5701 8.42803 95.6207 5.52852 100.296 3.54144C105.011 1.51381 110.211 0.5 115.893 0.5C121.536 0.5 126.695 1.51381 131.37 3.54144C136.086 5.52852 140.156 8.42803 143.582 12.24C147.008 16.0114 149.668 20.5938 151.562 25.9873C153.457 31.3808 154.404 37.4637 154.404 44.236ZM132.882 47.8249V44.1143C132.882 39.7346 132.499 35.8821 131.733 32.5568C131.007 29.191 129.919 26.3725 128.468 24.1016C127.017 21.8307 125.224 20.1275 123.088 18.992C120.992 17.816 118.594 17.2279 115.893 17.2279C113.072 17.2279 110.614 17.816 108.518 18.992C106.422 20.1275 104.669 21.8307 103.258 24.1016C101.848 26.3725 100.78 29.191 100.054 32.5568C99.3689 35.8821 99.0263 39.7346 99.0263 44.1143V47.8249C99.0263 52.164 99.3689 56.0165 100.054 59.3823C100.78 62.7077 101.848 65.5261 103.258 67.8376C104.709 70.1491 106.483 71.8928 108.578 73.0688C110.714 74.2449 113.193 74.8329 116.014 74.8329C118.715 74.8329 121.113 74.2449 123.209 73.0688C125.304 71.8928 127.058 70.1491 128.468 67.8376C129.919 65.5261 131.007 62.7077 131.733 59.3823C132.499 56.0165 132.882 52.164 132.882 47.8249Z"
      fill="#E7F2FF"
    />
    <path
      d="M200.531 60.234H178.646V43.7493H200.531C203.514 43.7493 205.932 43.2424 207.786 42.2286C209.64 41.2148 210.99 39.8157 211.837 38.0314C212.723 36.2066 213.167 34.1586 213.167 31.8877C213.167 29.4545 212.723 27.2039 211.837 25.1357C210.99 23.0675 209.64 21.4049 207.786 20.1477C205.932 18.85 203.514 18.2012 200.531 18.2012H186.627V90.2834H165.407V1.71658H200.531C207.585 1.71658 213.65 3.01426 218.729 5.60963C223.847 8.20499 227.777 11.7736 230.517 16.3155C233.258 20.8168 234.628 25.967 234.628 31.766C234.628 37.484 233.258 42.4719 230.517 46.7299C227.777 50.988 223.847 54.3133 218.729 56.7059C213.65 59.0579 207.585 60.234 200.531 60.234Z"
      fill="#E7F2FF"
    />
    <path
      d="M320.536 44.236V47.8249C320.536 54.5971 319.589 60.68 317.694 66.0735C315.84 71.4265 313.201 76.0089 309.775 79.8209C306.349 83.5922 302.298 86.4918 297.623 88.5194C292.948 90.5065 287.789 91.5 282.146 91.5C276.464 91.5 271.264 90.5065 266.549 88.5194C261.874 86.4918 257.803 83.5922 254.337 79.8209C250.911 76.0089 248.251 71.4265 246.357 66.0735C244.503 60.68 243.576 54.5971 243.576 47.8249V44.236C243.576 37.4637 244.503 31.3808 246.357 25.9873C248.251 20.5938 250.891 16.0114 254.276 12.24C257.702 8.42803 261.753 5.52852 266.428 3.54144C271.144 1.51381 276.343 0.5 282.026 0.5C287.668 0.5 292.827 1.51381 297.502 3.54144C302.218 5.52852 306.288 8.42803 309.714 12.24C313.14 16.0114 315.8 20.5938 317.694 25.9873C319.589 31.3808 320.536 37.4637 320.536 44.236ZM299.014 47.8249V44.1143C299.014 39.7346 298.631 35.8821 297.865 32.5568C297.139 29.191 296.051 26.3725 294.6 24.1016C293.149 21.8307 291.356 20.1275 289.22 18.992C287.124 17.816 284.726 17.2279 282.026 17.2279C279.204 17.2279 276.746 17.816 274.65 18.992C272.554 20.1275 270.801 21.8307 269.39 24.1016C267.98 26.3725 266.912 29.191 266.186 32.5568C265.501 35.8821 265.158 39.7346 265.158 44.1143V47.8249C265.158 52.164 265.501 56.0165 266.186 59.3823C266.912 62.7077 267.98 65.5261 269.39 67.8376C270.841 70.1491 272.615 71.8928 274.71 73.0688C276.847 74.2449 279.325 74.8329 282.146 74.8329C284.847 74.8329 287.245 74.2449 289.341 73.0688C291.436 71.8928 293.19 70.1491 294.6 67.8376C296.051 65.5261 297.139 62.7077 297.865 59.3823C298.631 56.0165 299.014 52.164 299.014 47.8249Z"
      fill="#E7F2FF"
    />
    <path
      d="M368.961 1.71658V90.2834H347.741V1.71658H368.961ZM395.44 1.71658V18.2012H321.866V1.71658H395.44Z"
      fill="#E7F2FF"
    />
    <path
      d="M434.374 20.3302L412.912 90.2834H390.12L422.464 1.71658H436.913L434.374 20.3302ZM452.148 90.2834L430.626 20.3302L427.845 1.71658H442.475L475 90.2834H452.148ZM451.301 57.2533V73.738H406.141V57.2533H451.301Z"
      fill="#E7F2FF"
    />
  </svg>