<svg width="417" height="184" viewBox="0 0 417 184" fill="none" xmlns="http://www.w3.org/2000/svg">
<path d="M18.271 1.04278V76.9572H0V1.04278H18.271ZM62.1213 1.04278L34.8192 46.9251H15.0866L12.8941 30.3971H25.3705L39.9873 1.04278H62.1213ZM43.1195 76.9572L25.3183 43.7447L38.63 31.492L64.7314 76.9572H43.1195Z" fill="#E7F2FF"/>
<path d="M131.969 37.488V40.5642C131.969 46.369 131.151 51.5829 129.515 56.2059C127.914 60.7941 125.635 64.7219 122.676 67.9893C119.718 71.2219 116.221 73.7072 112.184 75.4452C108.147 77.1484 103.692 78 98.8198 78C93.9127 78 89.4233 77.1484 85.3515 75.4452C81.3145 73.7072 77.7995 71.2219 74.8065 67.9893C71.8484 64.7219 69.5514 60.7941 67.9158 56.2059C66.3149 51.5829 65.5144 46.369 65.5144 40.5642V37.488C65.5144 31.6832 66.3149 26.4693 67.9158 21.8463C69.5514 17.2233 71.831 13.2955 74.7543 10.0628C77.7125 6.79545 81.2101 4.31016 85.2471 2.60695C89.3189 0.868984 93.8083 0 98.7154 0C103.588 0 108.042 0.868984 112.079 2.60695C116.151 4.31016 119.666 6.79545 122.624 10.0628C125.582 13.2955 127.879 17.2233 129.515 21.8463C131.151 26.4693 131.969 31.6832 131.969 37.488ZM113.384 40.5642V37.3837C113.384 33.6297 113.054 30.3275 112.392 27.4773C111.766 24.5922 110.826 22.1765 109.574 20.2299C108.321 18.2834 106.772 16.8235 104.927 15.8503C103.118 14.8422 101.047 14.3382 98.7154 14.3382C96.2792 14.3382 94.1563 14.8422 92.3466 15.8503C90.5369 16.8235 89.0231 18.2834 87.805 20.2299C86.5869 22.1765 85.6647 24.5922 85.0383 27.4773C84.4466 30.3275 84.1508 33.6297 84.1508 37.3837V40.5642C84.1508 44.2834 84.4466 47.5856 85.0383 50.4706C85.6647 53.3209 86.5869 55.7366 87.805 57.7179C89.0579 59.6992 90.5891 61.1938 92.3988 62.2019C94.2433 63.2099 96.3836 63.7139 98.8198 63.7139C101.151 63.7139 103.222 63.2099 105.032 62.2019C106.842 61.1938 108.355 59.6992 109.574 57.7179C110.826 55.7366 111.766 53.3209 112.392 50.4706C113.054 47.5856 113.384 44.2834 113.384 40.5642Z" fill="#E7F2FF"/>
<path d="M172.478 44.6832H152.902L152.797 32.6912H168.667C171.521 32.6912 173.8 32.3783 175.506 31.7527C177.211 31.0922 178.446 30.1364 179.212 28.885C180.012 27.6337 180.413 26.0695 180.413 24.1925C180.413 22.0374 180.012 20.2995 179.212 18.9786C178.412 17.6578 177.141 16.7019 175.401 16.111C173.696 15.4853 171.486 15.1725 168.771 15.1725H159.793V76.9572H141.469V1.04278H168.771C173.47 1.04278 177.663 1.47727 181.352 2.34626C185.041 3.18048 188.173 4.46658 190.749 6.20455C193.359 7.94251 195.343 10.1324 196.7 12.7741C198.057 15.381 198.736 18.4572 198.736 22.0027C198.736 25.0963 198.075 27.9987 196.752 30.7099C195.43 33.4211 193.22 35.6283 190.122 37.3316C187.06 39 182.866 39.869 177.541 39.9385L172.478 44.6832ZM171.747 76.9572H148.465L154.729 62.8797H171.747C174.253 62.8797 176.254 62.4973 177.75 61.7326C179.282 60.9332 180.378 59.8904 181.039 58.6043C181.735 57.2834 182.083 55.8235 182.083 54.2246C182.083 52.2781 181.753 50.5922 181.091 49.1671C180.465 47.742 179.456 46.6471 178.064 45.8824C176.671 45.0829 174.81 44.6832 172.478 44.6832H157.078L157.182 32.6912H175.61L179.891 37.488C184.972 37.2794 188.991 37.992 191.949 39.6257C194.942 41.2594 197.083 43.4144 198.37 46.0909C199.658 48.7674 200.302 51.5655 200.302 54.4853C200.302 59.4559 199.223 63.6096 197.065 66.9465C194.942 70.2834 191.758 72.7861 187.512 74.4545C183.266 76.123 178.011 76.9572 171.747 76.9572Z" fill="#E7F2FF"/>
<path d="M242.691 16.9973L224.159 76.9572H204.478L232.407 1.04278H244.883L242.691 16.9973ZM258.038 76.9572L239.454 16.9973L237.053 1.04278H249.686L277.771 76.9572H258.038ZM257.307 48.6457V62.7754H218.312V48.6457H257.307Z" fill="#E7F2FF"/>
<path d="M334.567 31.1791V45.2567H295.572V31.1791H334.567ZM301.68 1.04278V76.9572H283.356V1.04278H301.68ZM346.887 1.04278V76.9572H328.616V1.04278H346.887Z" fill="#E7F2FF"/>
<path d="M378 1.04278V76.9572H359.729V1.04278H378Z" fill="#E7F2FF"/>
<path d="M18.271 1.04278V76.9572H0V1.04278H18.271ZM62.1213 1.04278L34.8192 46.9251H15.0866L12.8941 30.3971H25.3705L39.9873 1.04278H62.1213ZM43.1195 76.9572L25.3183 43.7447L38.63 31.492L64.7314 76.9572H43.1195Z" fill="#E7F2FF"/>
<path d="M131.969 37.488V40.5642C131.969 46.369 131.151 51.5829 129.515 56.2059C127.914 60.7941 125.635 64.7219 122.676 67.9893C119.718 71.2219 116.221 73.7072 112.184 75.4452C108.147 77.1484 103.692 78 98.8198 78C93.9127 78 89.4233 77.1484 85.3515 75.4452C81.3145 73.7072 77.7995 71.2219 74.8065 67.9893C71.8484 64.7219 69.5514 60.7941 67.9158 56.2059C66.3149 51.5829 65.5144 46.369 65.5144 40.5642V37.488C65.5144 31.6832 66.3149 26.4693 67.9158 21.8463C69.5514 17.2233 71.831 13.2955 74.7543 10.0628C77.7125 6.79545 81.2101 4.31016 85.2471 2.60695C89.3189 0.868984 93.8083 0 98.7154 0C103.588 0 108.042 0.868984 112.079 2.60695C116.151 4.31016 119.666 6.79545 122.624 10.0628C125.582 13.2955 127.879 17.2233 129.515 21.8463C131.151 26.4693 131.969 31.6832 131.969 37.488ZM113.384 40.5642V37.3837C113.384 33.6297 113.054 30.3275 112.392 27.4773C111.766 24.5922 110.826 22.1765 109.574 20.2299C108.321 18.2834 106.772 16.8235 104.927 15.8503C103.118 14.8422 101.047 14.3382 98.7154 14.3382C96.2792 14.3382 94.1563 14.8422 92.3466 15.8503C90.5369 16.8235 89.0231 18.2834 87.805 20.2299C86.5869 22.1765 85.6647 24.5922 85.0383 27.4773C84.4466 30.3275 84.1508 33.6297 84.1508 37.3837V40.5642C84.1508 44.2834 84.4466 47.5856 85.0383 50.4706C85.6647 53.3209 86.5869 55.7366 87.805 57.7179C89.0579 59.6992 90.5891 61.1938 92.3988 62.2019C94.2433 63.2099 96.3836 63.7139 98.8198 63.7139C101.151 63.7139 103.222 63.2099 105.032 62.2019C106.842 61.1938 108.355 59.6992 109.574 57.7179C110.826 55.7366 111.766 53.3209 112.392 50.4706C113.054 47.5856 113.384 44.2834 113.384 40.5642Z" fill="#E7F2FF"/>
<path d="M172.478 44.6832H152.902L152.797 32.6912H168.667C171.521 32.6912 173.8 32.3783 175.506 31.7527C177.211 31.0922 178.446 30.1364 179.212 28.885C180.012 27.6337 180.413 26.0695 180.413 24.1925C180.413 22.0374 180.012 20.2995 179.212 18.9786C178.412 17.6578 177.141 16.7019 175.401 16.111C173.696 15.4853 171.486 15.1725 168.771 15.1725H159.793V76.9572H141.469V1.04278H168.771C173.47 1.04278 177.663 1.47727 181.352 2.34626C185.041 3.18048 188.173 4.46658 190.749 6.20455C193.359 7.94251 195.343 10.1324 196.7 12.7741C198.057 15.381 198.736 18.4572 198.736 22.0027C198.736 25.0963 198.075 27.9987 196.752 30.7099C195.43 33.4211 193.22 35.6283 190.122 37.3316C187.06 39 182.866 39.869 177.541 39.9385L172.478 44.6832ZM171.747 76.9572H148.465L154.729 62.8797H171.747C174.253 62.8797 176.254 62.4973 177.75 61.7326C179.282 60.9332 180.378 59.8904 181.039 58.6043C181.735 57.2834 182.083 55.8235 182.083 54.2246C182.083 52.2781 181.753 50.5922 181.091 49.1671C180.465 47.742 179.456 46.6471 178.064 45.8824C176.671 45.0829 174.81 44.6832 172.478 44.6832H157.078L157.182 32.6912H175.61L179.891 37.488C184.972 37.2794 188.991 37.992 191.949 39.6257C194.942 41.2594 197.083 43.4144 198.37 46.0909C199.658 48.7674 200.302 51.5655 200.302 54.4853C200.302 59.4559 199.223 63.6096 197.065 66.9465C194.942 70.2834 191.758 72.7861 187.512 74.4545C183.266 76.123 178.011 76.9572 171.747 76.9572Z" fill="#E7F2FF"/>
<path d="M242.691 16.9973L224.159 76.9572H204.478L232.407 1.04278H244.883L242.691 16.9973ZM258.038 76.9572L239.454 16.9973L237.053 1.04278H249.686L277.771 76.9572H258.038ZM257.307 48.6457V62.7754H218.312V48.6457H257.307Z" fill="#E7F2FF"/>
<path d="M334.567 31.1791V45.2567H295.572V31.1791H334.567ZM301.68 1.04278V76.9572H283.356V1.04278H301.68ZM346.887 1.04278V76.9572H328.616V1.04278H346.887Z" fill="#E7F2FF"/>
<path d="M378 1.04278V76.9572H359.729V1.04278H378Z" fill="#E7F2FF"/>
<path d="M31.0593 150.256H11.4512L11.3466 138.11H27.2423C30.1007 138.11 32.3839 137.793 34.092 137.16C35.8001 136.491 37.0376 135.523 37.8045 134.255C38.6063 132.988 39.0071 131.404 39.0071 129.503C39.0071 127.32 38.6063 125.56 37.8045 124.222C37.0028 122.884 35.7304 121.916 33.9875 121.318C32.2794 120.684 30.0658 120.367 27.3468 120.367H18.3532V182.944H0V106.056H27.3468C32.0528 106.056 36.2533 106.496 39.9483 107.376C43.6434 108.221 46.7807 109.524 49.3603 111.284C51.9747 113.044 53.9616 115.262 55.3211 117.938C56.6806 120.578 57.3604 123.694 57.3604 127.285C57.3604 130.418 56.6981 133.358 55.3734 136.104C54.0488 138.85 51.8352 141.085 48.7328 142.81C45.6652 144.5 41.4647 145.38 36.1313 145.451L31.0593 150.256ZM30.3273 182.944H7.00665L13.2813 168.686H30.3273C32.8371 168.686 34.8415 168.299 36.3404 167.524C37.8742 166.714 38.9723 165.658 39.6346 164.356C40.3318 163.018 40.6804 161.539 40.6804 159.92C40.6804 157.948 40.3492 156.241 39.6869 154.797C39.0594 153.354 38.0485 152.245 36.6542 151.471C35.2598 150.661 33.3949 150.256 31.0593 150.256H15.6342L15.7388 138.11H34.1966L38.4843 142.969C43.5737 142.757 47.5999 143.479 50.5629 145.134C53.5608 146.788 55.7046 148.971 56.9944 151.682C58.2841 154.393 58.929 157.227 58.929 160.184C58.929 165.218 57.8484 169.425 55.6871 172.805C53.5608 176.184 50.3712 178.719 46.1184 180.409C41.8656 182.099 36.6019 182.944 30.3273 182.944Z" fill="#E7F2FF"/>
<path d="M86.4327 154.586L113.78 106.056H132.133V182.944H113.78V134.467L86.4327 182.944H68.0795V106.056H86.4327V154.586Z" fill="#E7F2FF"/>
<path d="M173.754 156.857H154.826V142.546H173.754C176.334 142.546 178.425 142.106 180.029 141.226C181.632 140.346 182.8 139.131 183.532 137.582C184.299 135.998 184.683 134.22 184.683 132.249C184.683 130.136 184.299 128.182 183.532 126.387C182.8 124.592 181.632 123.148 180.029 122.057C178.425 120.93 176.334 120.367 173.754 120.367H161.728V182.944H143.375V106.056H173.754C179.855 106.056 185.101 107.183 189.493 109.436C193.92 111.689 197.319 114.787 199.689 118.73C202.06 122.638 203.245 127.109 203.245 132.143C203.245 137.107 202.06 141.437 199.689 145.134C197.319 148.83 193.92 151.717 189.493 153.794C185.101 155.836 179.855 156.857 173.754 156.857Z" fill="#E7F2FF"/>
<path d="M277.547 142.969V146.084C277.547 151.963 276.728 157.244 275.089 161.926C273.486 166.574 271.203 170.552 268.24 173.861C265.276 177.135 261.773 179.652 257.73 181.412C253.686 183.137 249.224 184 244.344 184C239.429 184 234.932 183.137 230.853 181.412C226.81 179.652 223.289 177.135 220.291 173.861C217.328 170.552 215.027 166.574 213.389 161.926C211.785 157.244 210.984 151.963 210.984 146.084V142.969C210.984 137.089 211.785 131.809 213.389 127.126C215.027 122.444 217.311 118.466 220.239 115.192C223.202 111.883 226.705 109.365 230.749 107.64C234.827 105.88 239.324 105 244.239 105C249.119 105 253.581 105.88 257.625 107.64C261.703 109.365 265.224 111.883 268.187 115.192C271.15 118.466 273.451 122.444 275.089 127.126C276.728 131.809 277.547 137.089 277.547 142.969ZM258.932 146.084V142.863C258.932 139.061 258.601 135.716 257.939 132.83C257.311 129.908 256.37 127.461 255.115 125.489C253.86 123.518 252.309 122.039 250.461 121.053C248.649 120.033 246.575 119.522 244.239 119.522C241.799 119.522 239.673 120.033 237.86 121.053C236.047 122.039 234.531 123.518 233.311 125.489C232.091 127.461 231.167 129.908 230.54 132.83C229.947 135.716 229.651 139.061 229.651 142.863V146.084C229.651 149.851 229.947 153.196 230.54 156.118C231.167 159.004 232.091 161.451 233.311 163.458C234.566 165.465 236.1 166.978 237.912 167.999C239.76 169.02 241.904 169.531 244.344 169.531C246.679 169.531 248.753 169.02 250.566 167.999C252.379 166.978 253.895 165.465 255.115 163.458C256.37 161.451 257.311 159.004 257.939 156.118C258.601 153.196 258.932 149.851 258.932 146.084Z" fill="#E7F2FF"/>
<path d="M338.463 106.056V120.367H305.364V182.944H287.063V106.056H338.463ZM298.567 132.513H314.933C321.103 132.513 326.471 133.551 331.038 135.628C335.604 137.705 339.125 140.61 341.6 144.342C344.11 148.073 345.365 152.439 345.365 157.438C345.365 161.205 344.65 164.655 343.221 167.788C341.792 170.886 339.735 173.579 337.051 175.868C334.402 178.121 331.212 179.863 327.482 181.096C323.752 182.328 319.569 182.944 314.933 182.944H287.116V106.056H305.521V168.686H314.933C317.547 168.686 319.744 168.175 321.521 167.154C323.334 166.133 324.711 164.778 325.652 163.088C326.593 161.363 327.064 159.445 327.064 157.332C327.064 155.29 326.593 153.477 325.652 151.893C324.711 150.309 323.334 149.059 321.521 148.144C319.744 147.228 317.547 146.771 314.933 146.771H298.567V132.513Z" fill="#E7F2FF"/>
<path d="M371.3 154.586L398.647 106.056H417V182.944H398.647V134.467L371.3 182.944H352.947V106.056H371.3V154.586Z" fill="#E7F2FF"/>
<path d="M31.0593 150.256H11.4512L11.3466 138.11H27.2423C30.1007 138.11 32.3839 137.793 34.092 137.16C35.8001 136.491 37.0376 135.523 37.8045 134.255C38.6063 132.988 39.0071 131.404 39.0071 129.503C39.0071 127.32 38.6063 125.56 37.8045 124.222C37.0028 122.884 35.7304 121.916 33.9875 121.318C32.2794 120.684 30.0658 120.367 27.3468 120.367H18.3532V182.944H0V106.056H27.3468C32.0528 106.056 36.2533 106.496 39.9483 107.376C43.6434 108.221 46.7807 109.524 49.3603 111.284C51.9747 113.044 53.9616 115.262 55.3211 117.938C56.6806 120.578 57.3604 123.694 57.3604 127.285C57.3604 130.418 56.6981 133.358 55.3734 136.104C54.0488 138.85 51.8352 141.085 48.7328 142.81C45.6652 144.5 41.4647 145.38 36.1313 145.451L31.0593 150.256ZM30.3273 182.944H7.00665L13.2813 168.686H30.3273C32.8371 168.686 34.8415 168.299 36.3404 167.524C37.8742 166.714 38.9723 165.658 39.6346 164.356C40.3318 163.018 40.6804 161.539 40.6804 159.92C40.6804 157.948 40.3492 156.241 39.6869 154.797C39.0594 153.354 38.0485 152.245 36.6542 151.471C35.2598 150.661 33.3949 150.256 31.0593 150.256H15.6342L15.7388 138.11H34.1966L38.4843 142.969C43.5737 142.757 47.5999 143.479 50.5629 145.134C53.5608 146.788 55.7046 148.971 56.9944 151.682C58.2841 154.393 58.929 157.227 58.929 160.184C58.929 165.218 57.8484 169.425 55.6871 172.805C53.5608 176.184 50.3712 178.719 46.1184 180.409C41.8656 182.099 36.6019 182.944 30.3273 182.944Z" fill="#E7F2FF"/>
<path d="M86.4327 154.586L113.78 106.056H132.133V182.944H113.78V134.467L86.4327 182.944H68.0795V106.056H86.4327V154.586Z" fill="#E7F2FF"/>
<path d="M173.754 156.857H154.826V142.546H173.754C176.334 142.546 178.425 142.106 180.029 141.226C181.632 140.346 182.8 139.131 183.532 137.582C184.299 135.998 184.683 134.22 184.683 132.249C184.683 130.136 184.299 128.182 183.532 126.387C182.8 124.592 181.632 123.148 180.029 122.057C178.425 120.93 176.334 120.367 173.754 120.367H161.728V182.944H143.375V106.056H173.754C179.855 106.056 185.101 107.183 189.493 109.436C193.92 111.689 197.319 114.787 199.689 118.73C202.06 122.638 203.245 127.109 203.245 132.143C203.245 137.107 202.06 141.437 199.689 145.134C197.319 148.83 193.92 151.717 189.493 153.794C185.101 155.836 179.855 156.857 173.754 156.857Z" fill="#E7F2FF"/>
<path d="M277.547 142.969V146.084C277.547 151.963 276.728 157.244 275.089 161.926C273.486 166.574 271.203 170.552 268.24 173.861C265.276 177.135 261.773 179.652 257.73 181.412C253.686 183.137 249.224 184 244.344 184C239.429 184 234.932 183.137 230.853 181.412C226.81 179.652 223.289 177.135 220.291 173.861C217.328 170.552 215.027 166.574 213.389 161.926C211.785 157.244 210.984 151.963 210.984 146.084V142.969C210.984 137.089 211.785 131.809 213.389 127.126C215.027 122.444 217.311 118.466 220.239 115.192C223.202 111.883 226.705 109.365 230.749 107.64C234.827 105.88 239.324 105 244.239 105C249.119 105 253.581 105.88 257.625 107.64C261.703 109.365 265.224 111.883 268.187 115.192C271.15 118.466 273.451 122.444 275.089 127.126C276.728 131.809 277.547 137.089 277.547 142.969ZM258.932 146.084V142.863C258.932 139.061 258.601 135.716 257.939 132.83C257.311 129.908 256.37 127.461 255.115 125.489C253.86 123.518 252.309 122.039 250.461 121.053C248.649 120.033 246.575 119.522 244.239 119.522C241.799 119.522 239.673 120.033 237.86 121.053C236.047 122.039 234.531 123.518 233.311 125.489C232.091 127.461 231.167 129.908 230.54 132.83C229.947 135.716 229.651 139.061 229.651 142.863V146.084C229.651 149.851 229.947 153.196 230.54 156.118C231.167 159.004 232.091 161.451 233.311 163.458C234.566 165.465 236.1 166.978 237.912 167.999C239.76 169.02 241.904 169.531 244.344 169.531C246.679 169.531 248.753 169.02 250.566 167.999C252.379 166.978 253.895 165.465 255.115 163.458C256.37 161.451 257.311 159.004 257.939 156.118C258.601 153.196 258.932 149.851 258.932 146.084Z" fill="#E7F2FF"/>
<path d="M338.463 106.056V120.367H305.364V182.944H287.063V106.056H338.463ZM298.567 132.513H314.933C321.103 132.513 326.471 133.551 331.038 135.628C335.604 137.705 339.125 140.61 341.6 144.342C344.11 148.073 345.365 152.439 345.365 157.438C345.365 161.205 344.65 164.655 343.221 167.788C341.792 170.886 339.735 173.579 337.051 175.868C334.402 178.121 331.212 179.863 327.482 181.096C323.752 182.328 319.569 182.944 314.933 182.944H287.116V106.056H305.521V168.686H314.933C317.547 168.686 319.744 168.175 321.521 167.154C323.334 166.133 324.711 164.778 325.652 163.088C326.593 161.363 327.064 159.445 327.064 157.332C327.064 155.29 326.593 153.477 325.652 151.893C324.711 150.309 323.334 149.059 321.521 148.144C319.744 147.228 317.547 146.771 314.933 146.771H298.567V132.513Z" fill="#E7F2FF"/>
<path d="M371.3 154.586L398.647 106.056H417V182.944H398.647V134.467L371.3 182.944H352.947V106.056H371.3V154.586Z" fill="#E7F2FF"/>
</svg>
