<svg width="57" height="56" viewBox="0 0 57 56" fill="none" xmlns="http://www.w3.org/2000/svg">
<g clip-path="url(#clip0_317_151)">
<path d="M41.2267 36.3099L34.16 29.2432H32.84L29.4534 32.6299V33.9499L36.52 41.0166C37.04 41.5366 37.88 41.5366 38.4 41.0166L41.2267 38.1899C41.7467 37.6832 41.7467 36.8299 41.2267 36.3099Z" fill="#001E30"/>
<path d="M35.4534 25.6699L37.3334 23.7899L40.16 26.6166C41.72 25.0566 41.72 22.5232 40.16 20.9632L35.44 16.2432L33.56 18.1232V14.3632L32.6267 13.4166L27.9067 18.1366L28.8534 19.0832H32.6267L30.7467 20.9632L32.16 22.3766L28.3067 26.2299L22.8 20.7232V18.8299L18.7734 14.8032L15 18.5766L19.04 22.6166H20.92L26.4267 28.1232L25.2934 29.2566H22.4667L15.4 36.3232C14.88 36.8432 14.88 37.6832 15.4 38.2032L18.2267 41.0299C18.7467 41.5499 19.5867 41.5499 20.1067 41.0299L27.1734 33.9632V31.1366L34.04 24.2699L35.4534 25.6699Z" fill="#001E30"/>
</g>
<defs>
<clipPath id="clip0_317_151">
<rect width="32" height="32" fill="white" transform="translate(12.3334 12.0833)"/>
</clipPath>
</defs>
</svg>
