<svg width="16" height="16" viewBox="0 0 16 16" fill="none" xmlns="http://www.w3.org/2000/svg">
<g clip-path="url(#clip0_303_87)">
<path d="M8 1.33325C5.42 1.33325 3.33334 3.41992 3.33334 5.99992C3.33334 7.15992 3.66667 8.24658 4.27334 9.22658C4.90667 10.2533 5.74 11.1333 6.38 12.1599C6.69334 12.6599 6.92 13.1266 7.16 13.6666C7.33334 14.0333 7.47334 14.6666 8 14.6666C8.52667 14.6666 8.66667 14.0333 8.83334 13.6666C9.08 13.1266 9.3 12.6599 9.61334 12.1599C10.2533 11.1399 11.0867 10.2599 11.72 9.22658C12.3333 8.24658 12.6667 7.15992 12.6667 5.99992C12.6667 3.41992 10.58 1.33325 8 1.33325ZM8 7.83325C7.08 7.83325 6.33334 7.08658 6.33334 6.16658C6.33334 5.24659 7.08 4.49992 8 4.49992C8.92 4.49992 9.66667 5.24659 9.66667 6.16658C9.66667 7.08658 8.92 7.83325 8 7.83325Z" fill="#41474D"/>
</g>
<defs>
<clipPath id="clip0_303_87">
<rect width="16" height="16" fill="white"/>
</clipPath>
</defs>
</svg>
