<svg width="57" height="56" viewBox="0 0 57 56" fill="none" xmlns="http://www.w3.org/2000/svg">
<g clip-path="url(#clip0_317_108)">
<path d="M38.1867 29.3366C38.24 28.9366 38.2667 28.5233 38.2667 28.0833C38.2667 27.6566 38.24 27.2299 38.1733 26.8299L40.88 24.7233C41.12 24.5366 41.1867 24.1766 41.04 23.9099L38.48 19.4833C38.32 19.1899 37.9867 19.0966 37.6933 19.1899L34.5067 20.4699C33.84 19.9633 33.1333 19.5366 32.3467 19.2166L31.8667 15.8299C31.8133 15.5099 31.5467 15.2833 31.2267 15.2833H26.1067C25.7867 15.2833 25.5333 15.5099 25.48 15.8299L25 19.2166C24.2133 19.5366 23.4933 19.9766 22.84 20.4699L19.6533 19.1899C19.36 19.0833 19.0267 19.1899 18.8667 19.4833L16.32 23.9099C16.16 24.1899 16.2133 24.5366 16.48 24.7233L19.1867 26.8299C19.12 27.2299 19.0667 27.6699 19.0667 28.0833C19.0667 28.4966 19.0933 28.9366 19.16 29.3366L16.4533 31.4433C16.2133 31.6299 16.1467 31.9899 16.2933 32.2566L18.8533 36.6833C19.0133 36.9766 19.3467 37.0699 19.64 36.9766L22.8267 35.6966C23.4933 36.2033 24.2 36.6299 24.9867 36.9499L25.4667 40.3366C25.5333 40.6566 25.7867 40.8833 26.1067 40.8833H31.2267C31.5467 40.8833 31.8133 40.6566 31.8533 40.3366L32.3333 36.9499C33.12 36.6299 33.84 36.2033 34.4933 35.6966L37.68 36.9766C37.9733 37.0833 38.3067 36.9766 38.4667 36.6833L41.0267 32.2566C41.1867 31.9633 41.12 31.6299 40.8667 31.4433L38.1867 29.3366ZM28.6667 32.8833C26.0267 32.8833 23.8667 30.7233 23.8667 28.0833C23.8667 25.4433 26.0267 23.2833 28.6667 23.2833C31.3067 23.2833 33.4667 25.4433 33.4667 28.0833C33.4667 30.7233 31.3067 32.8833 28.6667 32.8833Z" fill="#001E30"/>
</g>
<defs>
<clipPath id="clip0_317_108">
<rect width="32" height="32" fill="white" transform="translate(12.6667 12.0833)"/>
</clipPath>
</defs>
</svg>
