<svg width="57" height="56" viewBox="0 0 57 56" fill="none" xmlns="http://www.w3.org/2000/svg">
<g clip-path="url(#clip0_317_120)">
<path d="M43 28.0833L39.7467 24.3633L40.2 19.4433L35.3867 18.3499L32.8667 14.0833L28.3334 16.0299L23.8001 14.0833L21.2801 18.3366L16.4667 19.4166L16.9201 24.3499L13.6667 28.0833L16.9201 31.8033L16.4667 36.7366L21.2801 37.8299L23.8001 42.0833L28.3334 40.1233L32.8667 42.0699L35.3867 37.8166L40.2 36.7233L39.7467 31.8033L43 28.0833ZM25.7867 34.3766L20.7201 29.2966L22.6934 27.3233L25.7867 30.4299L33.5867 22.6033L35.56 24.5766L25.7867 34.3766Z" fill="#001E30"/>
</g>
<defs>
<clipPath id="clip0_317_120">
<rect width="32" height="32" fill="white" transform="translate(12.3334 12.0833)"/>
</clipPath>
</defs>
</svg>
