<svg width="138" height="32" viewBox="0 0 138 32" fill="none" xmlns="http://www.w3.org/2000/svg">
<g filter="url(#filter0_ii_303_107)">
<path fill-rule="evenodd" clip-rule="evenodd" d="M0 5.81818L13.5 0L27 5.81818V14.5455C27 22.6182 21.24 30.1673 13.5 32C5.76 30.1673 0 22.6182 0 14.5455V5.81818ZM2 7.36088L13.5 2.42424V29.5758C6.90667 28.0207 2 21.6154 2 14.7658V7.36088Z" fill="#1A1C1E"/>
</g>
<path d="M42.9232 9.358L48.2692 23.152C48.4892 23.68 48.7239 24.0467 48.9732 24.252C49.2372 24.4427 49.4792 24.5453 49.6992 24.56V25C49.3179 24.9707 48.8559 24.956 48.3132 24.956C47.7852 24.9413 47.2426 24.934 46.6852 24.934C46.0399 24.934 45.4386 24.9413 44.8812 24.956C44.3239 24.956 43.8692 24.9707 43.5172 25V24.56C44.2652 24.5307 44.7419 24.406 44.9472 24.186C45.1526 23.9513 45.1086 23.46 44.8152 22.712L40.9432 12.262L41.3392 11.778L37.8192 20.908C37.5406 21.6413 37.3719 22.2427 37.3132 22.712C37.2546 23.1813 37.2912 23.548 37.4232 23.812C37.5552 24.076 37.7752 24.2667 38.0832 24.384C38.3912 24.4867 38.7726 24.5453 39.2272 24.56V25C38.7579 24.9707 38.3032 24.956 37.8632 24.956C37.4232 24.9413 36.9832 24.934 36.5432 24.934C36.2206 24.934 35.9126 24.9413 35.6192 24.956C35.3406 24.956 35.0912 24.9707 34.8712 25V24.56C35.1939 24.4867 35.5092 24.296 35.8172 23.988C36.1399 23.68 36.4479 23.1447 36.7412 22.382L41.7792 9.358C41.9552 9.37267 42.1459 9.38 42.3512 9.38C42.5566 9.38 42.7472 9.37267 42.9232 9.358ZM44.8372 18.664V19.104H38.2812L38.5012 18.664H44.8372ZM62.9461 9.424V9.864C62.4475 9.87867 62.0661 9.93733 61.8021 10.04C61.5528 10.128 61.3841 10.304 61.2961 10.568C61.2081 10.8173 61.1641 11.2133 61.1641 11.756V22.668C61.1641 23.196 61.2081 23.5993 61.2961 23.878C61.3841 24.142 61.5455 24.3253 61.7801 24.428C62.0295 24.516 62.3888 24.56 62.8581 24.56H63.5401C63.4815 25.1027 63.4375 25.6307 63.4081 26.144C63.3935 26.672 63.3861 27.068 63.3861 27.332C63.3861 27.6107 63.3935 27.8673 63.4081 28.102C63.4228 28.3513 63.4375 28.564 63.4521 28.74H62.9461C62.8141 27.8013 62.6088 27.0607 62.3301 26.518C62.0661 25.9753 61.6995 25.5867 61.2301 25.352C60.7755 25.1173 60.1888 25 59.4701 25H53.8161C53.0975 25 52.5035 25.1173 52.0341 25.352C51.5795 25.5867 51.2201 25.9753 50.9561 26.518C50.6921 27.0607 50.4868 27.8013 50.3401 28.74H49.8341C49.8635 28.564 49.8781 28.3513 49.8781 28.102C49.8928 27.8673 49.9001 27.6107 49.9001 27.332C49.9001 27.068 49.8855 26.672 49.8561 26.144C49.8415 25.6307 49.8048 25.1027 49.7461 24.56H56.3681C56.8668 24.56 57.2408 24.516 57.4901 24.428C57.7541 24.3253 57.9301 24.142 58.0181 23.878C58.1061 23.5993 58.1501 23.196 58.1501 22.668V11.756C58.1501 11.2133 58.0988 10.81 57.9961 10.546C57.9081 10.282 57.7468 10.106 57.5121 10.018C57.2921 9.91533 56.9695 9.864 56.5441 9.864H56.2581C55.8768 9.864 55.5835 9.91533 55.3781 10.018C55.1728 10.106 55.0261 10.2893 54.9381 10.568C54.8501 10.832 54.7841 11.228 54.7401 11.756C54.6668 12.592 54.5935 13.494 54.5201 14.462C54.4615 15.43 54.3808 16.4127 54.2781 17.41C54.1755 18.3927 54.0288 19.3387 53.8381 20.248C53.6621 21.1427 53.4201 21.9493 53.1121 22.668C52.8041 23.372 52.4081 23.9367 51.9241 24.362C51.4401 24.7727 50.8461 24.978 50.1421 24.978V24.56C50.8168 24.56 51.3815 24.3107 51.8361 23.812C52.2908 23.2987 52.6575 22.6093 52.9361 21.744C53.2295 20.8787 53.4568 19.896 53.6181 18.796C53.7795 17.6813 53.9041 16.5227 53.9921 15.32C54.0801 14.1173 54.1608 12.9293 54.2341 11.756C54.2781 11.2427 54.2561 10.854 54.1681 10.59C54.0948 10.326 53.9188 10.1427 53.6401 10.04C53.3761 9.93733 52.9801 9.87867 52.4521 9.864V9.424C52.7601 9.43867 53.1268 9.45333 53.5521 9.468C53.9775 9.48267 54.3661 9.49 54.7181 9.49C55.0555 9.49 55.3781 9.48267 55.6861 9.468C56.0088 9.43867 56.3315 9.424 56.6541 9.424C57.2115 9.424 57.7175 9.43867 58.1721 9.468C58.6268 9.48267 59.1695 9.49 59.8001 9.49C60.1521 9.49 60.5188 9.49 60.9001 9.49C61.2961 9.47533 61.6775 9.468 62.0441 9.468C62.4108 9.45333 62.7115 9.43867 62.9461 9.424ZM64.6738 9.424C65.0405 9.43867 65.5098 9.45333 66.0818 9.468C66.6538 9.48267 67.2258 9.49 67.7978 9.49C68.5165 9.49 69.1985 9.48267 69.8438 9.468C70.4892 9.45333 70.9438 9.446 71.2078 9.446C72.9385 9.446 74.2292 9.76867 75.0798 10.414C75.9452 11.0593 76.3778 11.888 76.3778 12.9C76.3778 13.4133 76.2385 13.9267 75.9598 14.44C75.6958 14.9533 75.2632 15.4153 74.6618 15.826C74.0752 16.2367 73.3052 16.5447 72.3518 16.75V16.794C73.6425 16.9113 74.6618 17.1753 75.4098 17.586C76.1725 17.982 76.7152 18.4587 77.0378 19.016C77.3605 19.5587 77.5218 20.1307 77.5218 20.732C77.5218 21.6267 77.2872 22.3967 76.8178 23.042C76.3632 23.6727 75.7032 24.1567 74.8378 24.494C73.9725 24.8313 72.9312 25 71.7138 25C71.3912 25 70.8998 24.9927 70.2398 24.978C69.5798 24.9487 68.7805 24.934 67.8418 24.934C67.2405 24.934 66.6538 24.9413 66.0818 24.956C65.5098 24.956 65.0405 24.9707 64.6738 25V24.56C65.1578 24.5307 65.5172 24.472 65.7518 24.384C66.0012 24.296 66.1625 24.12 66.2358 23.856C66.3238 23.592 66.3678 23.196 66.3678 22.668V11.756C66.3678 11.2133 66.3238 10.8173 66.2358 10.568C66.1625 10.304 66.0012 10.128 65.7518 10.04C65.5172 9.93733 65.1578 9.87867 64.6738 9.864V9.424ZM70.8338 9.864C70.2325 9.864 69.8365 9.98867 69.6458 10.238C69.4698 10.4873 69.3818 10.9933 69.3818 11.756V22.668C69.3818 23.1813 69.4258 23.57 69.5138 23.834C69.6018 24.098 69.7558 24.274 69.9758 24.362C70.1958 24.45 70.5185 24.494 70.9438 24.494C72.1465 24.494 73.0118 24.164 73.5398 23.504C74.0825 22.8293 74.3538 21.876 74.3538 20.644C74.3538 19.5147 74.0605 18.642 73.4738 18.026C72.9018 17.41 71.9485 17.102 70.6138 17.102H68.6118C68.6118 17.102 68.6118 17.0433 68.6118 16.926C68.6118 16.794 68.6118 16.728 68.6118 16.728H70.5038C71.2518 16.728 71.8312 16.5667 72.2418 16.244C72.6525 15.9067 72.9312 15.4667 73.0778 14.924C73.2245 14.3667 73.2978 13.7727 73.2978 13.142C73.2978 12.0567 73.1072 11.2427 72.7258 10.7C72.3445 10.1427 71.7138 9.864 70.8338 9.864ZM90.5099 9.424C90.4512 10.0253 90.4072 10.612 90.3779 11.184C90.3632 11.7413 90.3559 12.1667 90.3559 12.46C90.3559 12.7387 90.3632 13.01 90.3779 13.274C90.3926 13.5233 90.4072 13.736 90.4219 13.912H89.9159C89.7986 12.9 89.6079 12.108 89.3439 11.536C89.0799 10.9493 88.7206 10.5387 88.2659 10.304C87.8259 10.0547 87.2466 9.93 86.5279 9.93H85.3179C84.8779 9.93 84.5406 9.96667 84.3059 10.04C84.0712 10.1133 83.9099 10.2673 83.8219 10.502C83.7486 10.7367 83.7119 11.096 83.7119 11.58V22.844C83.7119 23.3133 83.7486 23.6727 83.8219 23.922C83.9099 24.1567 84.0712 24.3107 84.3059 24.384C84.5406 24.4573 84.8779 24.494 85.3179 24.494H86.5719C87.3199 24.494 87.9432 24.3547 88.4419 24.076C88.9552 23.7973 89.3659 23.3427 89.6739 22.712C89.9819 22.0667 90.2092 21.1867 90.3559 20.072H90.8619C90.8179 20.5267 90.7959 21.1133 90.7959 21.832C90.7959 22.14 90.8032 22.5873 90.8179 23.174C90.8472 23.7607 90.8912 24.3693 90.9499 25C90.2019 24.9707 89.3586 24.956 88.4199 24.956C87.4812 24.9413 86.6452 24.934 85.9119 24.934C85.5746 24.934 85.1272 24.934 84.5699 24.934C84.0272 24.934 83.4332 24.9413 82.7879 24.956C82.1572 24.956 81.5119 24.9633 80.8519 24.978C80.2066 24.978 79.5906 24.9853 79.0039 25V24.56C79.4879 24.5307 79.8472 24.472 80.0819 24.384C80.3312 24.296 80.4926 24.12 80.5659 23.856C80.6539 23.592 80.6979 23.196 80.6979 22.668V11.756C80.6979 11.2133 80.6539 10.8173 80.5659 10.568C80.4926 10.304 80.3312 10.128 80.0819 10.04C79.8472 9.93733 79.4879 9.87867 79.0039 9.864V9.424C79.5906 9.43867 80.2066 9.45333 80.8519 9.468C81.5119 9.468 82.1572 9.47533 82.7879 9.49C83.4332 9.49 84.0272 9.49 84.5699 9.49C85.1272 9.49 85.5746 9.49 85.9119 9.49C86.5866 9.49 87.3492 9.49 88.1999 9.49C89.0652 9.47533 89.8352 9.45333 90.5099 9.424ZM86.9679 16.948C86.9679 16.948 86.9679 17.0213 86.9679 17.168C86.9679 17.3147 86.9679 17.388 86.9679 17.388H83.0519C83.0519 17.388 83.0519 17.3147 83.0519 17.168C83.0519 17.0213 83.0519 16.948 83.0519 16.948H86.9679ZM87.6059 14.044C87.5472 14.88 87.5179 15.518 87.5179 15.958C87.5326 16.398 87.5399 16.8013 87.5399 17.168C87.5399 17.5347 87.5472 17.938 87.5619 18.378C87.5766 18.818 87.6132 19.456 87.6719 20.292H87.1659C87.0926 19.7933 86.9752 19.324 86.8139 18.884C86.6672 18.4293 86.4252 18.07 86.0879 17.806C85.7652 17.5273 85.2959 17.388 84.6799 17.388V16.948C85.1346 16.948 85.5012 16.8527 85.7799 16.662C86.0732 16.4713 86.3079 16.2293 86.4839 15.936C86.6599 15.628 86.7919 15.3127 86.8799 14.99C86.9826 14.6527 87.0559 14.3373 87.0999 14.044H87.6059ZM102.038 25V24.56C102.522 24.5307 102.881 24.472 103.116 24.384C103.365 24.296 103.527 24.12 103.6 23.856C103.688 23.592 103.732 23.196 103.732 22.668V11.756C103.732 11.2133 103.688 10.8173 103.6 10.568C103.527 10.304 103.365 10.128 103.116 10.04C102.881 9.93733 102.522 9.87867 102.038 9.864V9.424C102.434 9.43867 102.925 9.45333 103.512 9.468C104.099 9.48267 104.685 9.49 105.272 9.49C105.917 9.49 106.519 9.48267 107.076 9.468C107.648 9.45333 108.103 9.43867 108.44 9.424V9.864C107.971 9.87867 107.611 9.93733 107.362 10.04C107.127 10.128 106.966 10.304 106.878 10.568C106.79 10.8173 106.746 11.2133 106.746 11.756V22.668C106.746 23.196 106.79 23.592 106.878 23.856C106.966 24.12 107.127 24.296 107.362 24.384C107.611 24.472 107.971 24.5307 108.44 24.56V25C108.103 24.9707 107.648 24.956 107.076 24.956C106.519 24.9413 105.917 24.934 105.272 24.934C104.685 24.934 104.099 24.9413 103.512 24.956C102.925 24.956 102.434 24.9707 102.038 25ZM92.7539 25V24.56C93.2379 24.5307 93.5972 24.472 93.8319 24.384C94.0812 24.296 94.2426 24.12 94.3159 23.856C94.4039 23.592 94.4479 23.196 94.4479 22.668V11.756C94.4479 11.2133 94.4039 10.8173 94.3159 10.568C94.2426 10.304 94.0812 10.128 93.8319 10.04C93.5972 9.93733 93.2379 9.87867 92.7539 9.864V9.424C93.1206 9.43867 93.5899 9.45333 94.1619 9.468C94.7339 9.48267 95.3499 9.49 96.0099 9.49C96.5966 9.49 97.1759 9.48267 97.7479 9.468C98.3199 9.45333 98.7892 9.43867 99.1559 9.424V9.864C98.6866 9.87867 98.3272 9.93733 98.0779 10.04C97.8432 10.128 97.6819 10.304 97.5939 10.568C97.5059 10.8173 97.4619 11.2133 97.4619 11.756V22.668C97.4619 23.196 97.5059 23.592 97.5939 23.856C97.6819 24.12 97.8432 24.296 98.0779 24.384C98.3272 24.472 98.6866 24.5307 99.1559 24.56V25C98.7892 24.9707 98.3199 24.956 97.7479 24.956C97.1759 24.9413 96.5966 24.934 96.0099 24.934C95.3499 24.934 94.7339 24.9413 94.1619 24.956C93.5899 24.956 93.1206 24.9707 92.7539 25ZM96.2519 17.388V16.948H104.942V17.388H96.2519ZM123.029 9.424C122.97 10.0987 122.926 10.7587 122.897 11.404C122.882 12.0347 122.875 12.5187 122.875 12.856C122.875 13.1933 122.882 13.5087 122.897 13.802C122.912 14.0953 122.926 14.352 122.941 14.572H122.435C122.23 13.3987 121.98 12.482 121.687 11.822C121.394 11.1473 121.005 10.6633 120.521 10.37C120.052 10.0767 119.428 9.93 118.651 9.93H117.947V22.47C117.947 23.0713 117.998 23.5187 118.101 23.812C118.218 24.1053 118.446 24.3033 118.783 24.406C119.12 24.494 119.612 24.5453 120.257 24.56V25C119.817 24.9707 119.245 24.956 118.541 24.956C117.837 24.9413 117.118 24.934 116.385 24.934C115.622 24.934 114.904 24.9413 114.229 24.956C113.569 24.956 113.034 24.9707 112.623 25V24.56C113.254 24.5453 113.738 24.494 114.075 24.406C114.412 24.3033 114.64 24.1053 114.757 23.812C114.874 23.5187 114.933 23.0713 114.933 22.47V9.93H114.207C113.444 9.93 112.821 10.0767 112.337 10.37C111.853 10.6633 111.464 11.1473 111.171 11.822C110.878 12.482 110.636 13.3987 110.445 14.572H109.939C109.968 14.352 109.983 14.0953 109.983 13.802C109.998 13.5087 110.005 13.1933 110.005 12.856C110.005 12.5187 109.99 12.0347 109.961 11.404C109.946 10.7587 109.91 10.0987 109.851 9.424C110.496 9.43867 111.208 9.45333 111.985 9.468C112.762 9.48267 113.54 9.49 114.317 9.49C115.094 9.49 115.806 9.49 116.451 9.49C117.082 9.49 117.786 9.49 118.563 9.49C119.34 9.49 120.118 9.48267 120.895 9.468C121.672 9.45333 122.384 9.43867 123.029 9.424ZM130.193 9.358L135.539 23.152C135.759 23.68 135.993 24.0467 136.243 24.252C136.507 24.4427 136.749 24.5453 136.969 24.56V25C136.587 24.9707 136.125 24.956 135.583 24.956C135.055 24.9413 134.512 24.934 133.955 24.934C133.309 24.934 132.708 24.9413 132.151 24.956C131.593 24.956 131.139 24.9707 130.787 25V24.56C131.535 24.5307 132.011 24.406 132.217 24.186C132.422 23.9513 132.378 23.46 132.085 22.712L128.213 12.262L128.609 11.778L125.089 20.908C124.81 21.6413 124.641 22.2427 124.583 22.712C124.524 23.1813 124.561 23.548 124.693 23.812C124.825 24.076 125.045 24.2667 125.353 24.384C125.661 24.4867 126.042 24.5453 126.497 24.56V25C126.027 24.9707 125.573 24.956 125.133 24.956C124.693 24.9413 124.253 24.934 123.813 24.934C123.49 24.934 123.182 24.9413 122.889 24.956C122.61 24.956 122.361 24.9707 122.141 25V24.56C122.463 24.4867 122.779 24.296 123.087 23.988C123.409 23.68 123.717 23.1447 124.011 22.382L129.049 9.358C129.225 9.37267 129.415 9.38 129.621 9.38C129.826 9.38 130.017 9.37267 130.193 9.358ZM132.107 18.664V19.104H125.551L125.771 18.664H132.107Z" fill="#1A1C1E"/>
<defs>
<filter id="filter0_ii_303_107" x="-1.63179" y="-1.10066" width="30.2636" height="34.2013" filterUnits="userSpaceOnUse" color-interpolation-filters="sRGB">
<feFlood flood-opacity="0" result="BackgroundImageFix"/>
<feBlend mode="normal" in="SourceGraphic" in2="BackgroundImageFix" result="shape"/>
<feColorMatrix in="SourceAlpha" type="matrix" values="0 0 0 0 0 0 0 0 0 0 0 0 0 0 0 0 0 0 127 0" result="hardAlpha"/>
<feOffset dx="1.63179" dy="-1.10066"/>
<feGaussianBlur stdDeviation="0.984148"/>
<feComposite in2="hardAlpha" operator="arithmetic" k2="-1" k3="1"/>
<feColorMatrix type="matrix" values="0 0 0 0 0 0 0 0 0 0.146353 0 0 0 0 0.234165 0 0 0 0.5 0"/>
<feBlend mode="normal" in2="shape" result="effect1_innerShadow_303_107"/>
<feColorMatrix in="SourceAlpha" type="matrix" values="0 0 0 0 0 0 0 0 0 0 0 0 0 0 0 0 0 0 127 0" result="hardAlpha"/>
<feOffset dx="-1.63179" dy="1.10066"/>
<feGaussianBlur stdDeviation="0.984148"/>
<feComposite in2="hardAlpha" operator="arithmetic" k2="-1" k3="1"/>
<feColorMatrix type="matrix" values="0 0 0 0 0 0 0 0 0 0.0817647 0 0 0 0 0.130824 0 0 0 0.5 0"/>
<feBlend mode="normal" in2="effect1_innerShadow_303_107" result="effect2_innerShadow_303_107"/>
</filter>
</defs>
</svg>
